<?xml version="1.0" standalone="no"?>
<!DOCTYPE svg PUBLIC "-//W3C//DTD SVG 20010904//EN"
 "http://www.w3.org/TR/2001/REC-SVG-20010904/DTD/svg10.dtd">
<svg version="1.0" xmlns="http://www.w3.org/2000/svg"
 width="720.000000pt" height="720.000000pt" viewBox="0 0 720.000000 720.000000"
 preserveAspectRatio="xMidYMid meet">
<metadata>
Created by potrace 1.11, written by Peter Selinger 2001-2013
</metadata>
<g transform="translate(0.000000,720.000000) scale(0.100000,-0.100000)"
fill="#000000" stroke="none">
<path d="M3368 7195 c-1 -2 -39 -6 -82 -9 -369 -27 -802 -141 -1167 -306 -104
-47 -286 -143 -407 -215 -33 -19 -197 -129 -202 -134 -3 -4 -40 -32 -83 -64
-109 -81 -267 -218 -361 -313 -69 -70 -217 -230 -239 -259 -4 -5 -36 -46 -70
-90 -180 -230 -346 -508 -457 -770 -23 -55 -49 -114 -57 -132 -17 -40 -113
-331 -119 -359 -2 -12 -17 -77 -33 -145 -16 -68 -33 -144 -36 -169 -4 -25 -8
-52 -10 -60 -2 -8 -6 -40 -10 -70 -4 -30 -9 -66 -11 -80 -18 -114 -26 -590
-11 -735 9 -100 18 -169 22 -191 3 -12 7 -39 10 -60 13 -86 48 -255 76 -359
292 -1093 1095 -1999 2140 -2416 105 -41 345 -124 389 -133 14 -3 63 -15 110
-26 115 -27 257 -55 335 -65 102 -13 124 -16 185 -22 89 -9 515 -9 620 -1 75
6 114 11 270 33 20 3 47 8 60 11 14 3 38 7 53 8 15 2 47 8 70 14 23 6 89 23
146 37 137 35 289 84 436 142 117 46 434 201 491 240 16 11 76 50 134 88 95
61 237 161 250 175 3 3 30 25 60 49 294 231 604 589 821 950 87 144 249 472
249 503 0 8 4 18 9 24 9 9 88 236 111 319 46 163 92 380 105 500 4 33 9 62 10
65 10 17 20 239 20 435 -1 268 -4 318 -40 559 -23 149 -24 156 -72 346 -28
110 -105 346 -132 405 -10 22 -22 51 -26 65 -12 42 -149 319 -203 412 -130
225 -298 453 -472 642 -96 104 -264 265 -345 329 -11 9 -47 38 -80 65 -210
171 -536 365 -800 476 -60 26 -119 51 -130 56 -55 25 -344 117 -425 134 -14 3
-43 10 -65 15 -154 35 -336 65 -475 78 -58 5 -557 13 -562 8z m412 -549 c69
-3 134 -7 145 -10 11 -2 51 -7 90 -11 38 -4 73 -9 76 -11 4 -2 22 -6 40 -8
134 -18 365 -80 549 -149 296 -110 666 -327 884 -517 244 -213 419 -409 583
-655 226 -339 399 -771 459 -1151 3 -20 7 -46 10 -57 9 -47 24 -186 30 -267 6
-85 6 -370 0 -420 -3 -25 -8 -74 -11 -110 -3 -36 -8 -78 -10 -95 -3 -16 -7
-46 -9 -65 -8 -57 -45 -231 -61 -290 -9 -30 -18 -64 -20 -75 -11 -50 -85 -262
-115 -330 -115 -261 -258 -509 -389 -675 -20 -25 -40 -51 -46 -58 -5 -8 -21
-27 -35 -42 -14 -16 -42 -49 -62 -72 -147 -173 -380 -375 -592 -517 -111 -74
-185 -117 -336 -197 -174 -92 -503 -206 -715 -249 -61 -12 -83 -17 -110 -21
-16 -3 -55 -9 -85 -14 -30 -5 -84 -12 -120 -16 -36 -3 -83 -8 -105 -10 -22 -2
-121 -4 -220 -4 -166 0 -231 3 -325 14 -96 11 -157 19 -175 22 -11 2 -55 11
-97 19 -389 74 -780 236 -1103 456 -59 41 -115 79 -124 84 -9 6 -18 12 -21 15
-3 3 -27 23 -55 45 -451 354 -805 854 -992 1400 -19 55 -36 107 -38 115 -2 8
-13 47 -24 85 -20 73 -57 245 -65 305 -16 117 -25 187 -24 200 0 8 -2 38 -6
65 -7 52 -8 387 -2 440 2 17 7 64 10 105 24 267 106 589 221 865 20 50 42 99
48 110 6 11 12 22 12 25 3 19 153 290 165 300 4 3 13 16 20 29 18 35 133 195
142 199 4 2 8 10 8 17 0 7 3 15 8 17 4 2 29 30 57 63 152 183 288 314 501 483
32 25 159 113 244 169 154 101 533 274 695 317 6 2 17 6 25 9 18 7 238 62 295
73 22 4 42 8 45 9 15 3 101 16 140 20 25 3 56 7 70 10 14 3 86 8 160 11 74 4
136 7 137 8 1 1 24 1 50 0 27 -2 104 -5 173 -8z"/>
<path d="M5180 5090 c-14 -4 -39 -14 -55 -23 -17 -9 -457 -444 -980 -967
l-949 -951 -556 555 c-385 385 -566 560 -592 571 -51 21 -104 19 -153 -5 -58
-28 -340 -315 -349 -355 -15 -70 -15 -82 0 -129 15 -44 92 -124 830 -862 448
-448 817 -814 822 -814 15 1 2430 2427 2446 2458 21 41 25 94 12 147 -8 32
-38 68 -154 186 -80 81 -162 157 -183 168 -41 24 -100 32 -139 21z"/>
</g>
</svg>
